<svg width="24" height="24" viewBox="0 0 24 24" fill="none" xmlns="http://www.w3.org/2000/svg">
<path d="M11.7071 5.29289C12.0976 5.68342 12.0976 6.31658 11.7071 6.70711L6.41421 12L11.7071 17.2929C12.0976 17.6834 12.0976 18.3166 11.7071 18.7071C11.3166 19.0976 10.6834 19.0976 10.2929 18.7071L4.29289 12.7071C3.90237 12.3166 3.90237 11.6834 4.29289 11.2929L10.2929 5.29289C10.6834 4.90237 11.3166 4.90237 11.7071 5.29289Z" fill="#3C3C3C"/>
<path d="M19.7071 5.29289C20.0976 5.68342 20.0976 6.31658 19.7071 6.70711L14.4142 12L19.7071 17.2929C20.0976 17.6834 20.0976 18.3166 19.7071 18.7071C19.3166 19.0976 18.6834 19.0976 18.2929 18.7071L12.2929 12.7071C11.9024 12.3166 11.9024 11.6834 12.2929 11.2929L18.2929 5.29289C18.6834 4.90237 19.3166 4.90237 19.7071 5.29289Z" fill="#3C3C3C"/>
</svg>
