<svg width="24" height="27" viewBox="0 0 24 27" fill="none" xmlns="http://www.w3.org/2000/svg">
<path fill-rule="evenodd" clip-rule="evenodd" d="M6.12109 4H8.12891C8.52427 3.99999 8.86534 3.99998 9.14627 4.02293C9.44278 4.04715 9.73769 4.10064 10.0215 4.24524C10.4448 4.46095 10.7891 4.80516 11.0048 5.22852C11.1494 5.51231 11.2028 5.80722 11.2271 6.10373C11.25 6.38466 11.25 6.72574 11.25 7.12111V9.12889C11.25 9.52426 11.25 9.86534 11.2271 10.1463C11.2028 10.4428 11.1494 10.7377 11.0048 11.0215C10.7891 11.4448 10.4448 11.7891 10.0215 12.0048C9.73769 12.1494 9.44278 12.2028 9.14627 12.2271C8.86534 12.25 8.52426 12.25 8.12889 12.25H6.12111C5.72574 12.25 5.38466 12.25 5.10373 12.2271C4.80722 12.2028 4.51231 12.1494 4.22852 12.0048C3.80516 11.7891 3.46095 11.4448 3.24524 11.0215C3.10064 10.7377 3.04715 10.4428 3.02293 10.1463C2.99998 9.86534 2.99999 9.52427 3 9.12891V7.12109C2.99999 6.72573 2.99998 6.38466 3.02293 6.10373C3.04715 5.80722 3.10064 5.51231 3.24524 5.22852C3.46095 4.80516 3.80516 4.46095 4.22852 4.24524C4.51231 4.10064 4.80722 4.04715 5.10373 4.02293C5.38466 3.99998 5.72573 3.99999 6.12109 4ZM5.22588 5.51795C5.02213 5.53459 4.94659 5.56285 4.90951 5.58175C4.76839 5.65365 4.65365 5.76839 4.58175 5.90951C4.56285 5.94659 4.53459 6.02213 4.51795 6.22588C4.50058 6.43838 4.5 6.71759 4.5 7.15V9.1C4.5 9.53242 4.50058 9.81162 4.51795 10.0241C4.53459 10.2279 4.56285 10.3034 4.58175 10.3405C4.65365 10.4816 4.76839 10.5964 4.90951 10.6683C4.94659 10.6872 5.02213 10.7154 5.22588 10.7321C5.43838 10.7494 5.71759 10.75 6.15 10.75H8.1C8.53242 10.75 8.81162 10.7494 9.02412 10.7321C9.22787 10.7154 9.30341 10.6872 9.34049 10.6683C9.48162 10.5964 9.59635 10.4816 9.66826 10.3405C9.68715 10.3034 9.71541 10.2279 9.73206 10.0241C9.74942 9.81162 9.75 9.53242 9.75 9.1V7.15C9.75 6.71759 9.74942 6.43838 9.73206 6.22588C9.71541 6.02213 9.68715 5.94659 9.66826 5.90951C9.59635 5.76839 9.48162 5.65365 9.34049 5.58175C9.30341 5.56285 9.22787 5.53459 9.02412 5.51795C8.81162 5.50058 8.53242 5.5 8.1 5.5H6.15C5.71759 5.5 5.43838 5.50058 5.22588 5.51795Z" fill="#9AA4CA"/>
<path fill-rule="evenodd" clip-rule="evenodd" d="M6.12109 13.75H8.12891C8.52427 13.75 8.86534 13.75 9.14627 13.7729C9.44278 13.7972 9.73769 13.8506 10.0215 13.9952C10.4448 14.211 10.7891 14.5552 11.0048 14.9785C11.1494 15.2623 11.2028 15.5572 11.2271 15.8537C11.25 16.1347 11.25 16.4757 11.25 16.8711V18.8789C11.25 19.2743 11.25 19.6153 11.2271 19.8963C11.2028 20.1928 11.1494 20.4877 11.0048 20.7715C10.7891 21.1948 10.4448 21.539 10.0215 21.7548C9.73769 21.8994 9.44278 21.9528 9.14627 21.9771C8.86534 22 8.52426 22 8.12889 22H6.12111C5.72574 22 5.38466 22 5.10373 21.9771C4.80722 21.9528 4.51231 21.8994 4.22852 21.7548C3.80516 21.539 3.46095 21.1948 3.24524 20.7715C3.10064 20.4877 3.04715 20.1928 3.02293 19.8963C2.99998 19.6153 2.99999 19.2743 3 18.8789V16.8711C2.99999 16.4757 2.99998 16.1347 3.02293 15.8537C3.04715 15.5572 3.10064 15.2623 3.24524 14.9785C3.46095 14.5552 3.80516 14.211 4.22852 13.9952C4.51231 13.8506 4.80722 13.7972 5.10373 13.7729C5.38466 13.75 5.72573 13.75 6.12109 13.75ZM5.22588 15.2679C5.02213 15.2846 4.94659 15.3129 4.90951 15.3317C4.76839 15.4037 4.65365 15.5184 4.58175 15.6595C4.56285 15.6966 4.53459 15.7721 4.51795 15.9759C4.50058 16.1884 4.5 16.4676 4.5 16.9V18.85C4.5 19.2824 4.50058 19.5616 4.51795 19.7741C4.53459 19.9779 4.56285 20.0534 4.58175 20.0905C4.65365 20.2316 4.76839 20.3463 4.90951 20.4183C4.94659 20.4371 5.02213 20.4654 5.22588 20.4821C5.43838 20.4994 5.71759 20.5 6.15 20.5H8.1C8.53242 20.5 8.81162 20.4994 9.02412 20.4821C9.22787 20.4654 9.30341 20.4371 9.34049 20.4183C9.48162 20.3463 9.59635 20.2316 9.66826 20.0905C9.68715 20.0534 9.71541 19.9779 9.73206 19.7741C9.74942 19.5616 9.75 19.2824 9.75 18.85V16.9C9.75 16.4676 9.74942 16.1884 9.73206 15.9759C9.71541 15.7721 9.68715 15.6966 9.66826 15.6595C9.59635 15.5184 9.48162 15.4037 9.34049 15.3317C9.30341 15.3129 9.22787 15.2846 9.02412 15.2679C8.81162 15.2506 8.53242 15.25 8.1 15.25H6.15C5.71759 15.25 5.43838 15.2506 5.22588 15.2679Z" fill="#9AA4CA"/>
<path fill-rule="evenodd" clip-rule="evenodd" d="M15.8711 4H17.8789C18.2743 3.99999 18.6153 3.99998 18.8963 4.02293C19.1928 4.04715 19.4877 4.10064 19.7715 4.24524C20.1948 4.46095 20.539 4.80516 20.7548 5.22852C20.8994 5.51231 20.9528 5.80722 20.9771 6.10373C21 6.38466 21 6.72574 21 7.12111V9.12889C21 9.52426 21 9.86534 20.9771 10.1463C20.9528 10.4428 20.8994 10.7377 20.7548 11.0215C20.539 11.4448 20.1948 11.7891 19.7715 12.0048C19.4877 12.1494 19.1928 12.2028 18.8963 12.2271C18.6153 12.25 18.2743 12.25 17.8789 12.25H15.8711C15.4757 12.25 15.1347 12.25 14.8537 12.2271C14.5572 12.2028 14.2623 12.1494 13.9785 12.0048C13.5552 11.7891 13.211 11.4448 12.9952 11.0215C12.8506 10.7377 12.7972 10.4428 12.7729 10.1463C12.75 9.86534 12.75 9.52427 12.75 9.12891V7.12109C12.75 6.72573 12.75 6.38466 12.7729 6.10373C12.7972 5.80722 12.8506 5.51231 12.9952 5.22852C13.211 4.80516 13.5552 4.46095 13.9785 4.24524C14.2623 4.10064 14.5572 4.04715 14.8537 4.02293C15.1347 3.99998 15.4757 3.99999 15.8711 4ZM14.9759 5.51795C14.7721 5.53459 14.6966 5.56285 14.6595 5.58175C14.5184 5.65365 14.4037 5.76839 14.3317 5.90951C14.3129 5.94659 14.2846 6.02213 14.2679 6.22588C14.2506 6.43838 14.25 6.71759 14.25 7.15V9.1C14.25 9.53242 14.2506 9.81162 14.2679 10.0241C14.2846 10.2279 14.3129 10.3034 14.3317 10.3405C14.4037 10.4816 14.5184 10.5964 14.6595 10.6683C14.6966 10.6872 14.7721 10.7154 14.9759 10.7321C15.1884 10.7494 15.4676 10.75 15.9 10.75H17.85C18.2824 10.75 18.5616 10.7494 18.7741 10.7321C18.9779 10.7154 19.0534 10.6872 19.0905 10.6683C19.2316 10.5964 19.3463 10.4816 19.4183 10.3405C19.4371 10.3034 19.4654 10.2279 19.4821 10.0241C19.4994 9.81162 19.5 9.53242 19.5 9.1V7.15C19.5 6.71759 19.4994 6.43838 19.4821 6.22588C19.4654 6.02213 19.4371 5.94659 19.4183 5.90951C19.3463 5.76839 19.2316 5.65365 19.0905 5.58175C19.0534 5.56285 18.9779 5.53459 18.7741 5.51795C18.5616 5.50058 18.2824 5.5 17.85 5.5H15.9C15.4676 5.5 15.1884 5.50058 14.9759 5.51795Z" fill="#9AA4CA"/>
<path fill-rule="evenodd" clip-rule="evenodd" d="M15.8711 13.75H17.8789C18.2743 13.75 18.6153 13.75 18.8963 13.7729C19.1928 13.7972 19.4877 13.8506 19.7715 13.9952C20.1948 14.211 20.539 14.5552 20.7548 14.9785C20.8994 15.2623 20.9528 15.5572 20.9771 15.8537C21 16.1347 21 16.4757 21 16.8711V18.8789C21 19.2743 21 19.6153 20.9771 19.8963C20.9528 20.1928 20.8994 20.4877 20.7548 20.7715C20.539 21.1948 20.1948 21.539 19.7715 21.7548C19.4877 21.8994 19.1928 21.9528 18.8963 21.9771C18.6153 22 18.2743 22 17.8789 22H15.8711C15.4757 22 15.1347 22 14.8537 21.9771C14.5572 21.9528 14.2623 21.8994 13.9785 21.7548C13.5552 21.539 13.211 21.1948 12.9952 20.7715C12.8506 20.4877 12.7972 20.1928 12.7729 19.8963C12.75 19.6153 12.75 19.2743 12.75 18.8789V16.8711C12.75 16.4757 12.75 16.1347 12.7729 15.8537C12.7972 15.5572 12.8506 15.2623 12.9952 14.9785C13.211 14.5552 13.5552 14.211 13.9785 13.9952C14.2623 13.8506 14.5572 13.7972 14.8537 13.7729C15.1347 13.75 15.4757 13.75 15.8711 13.75ZM14.9759 15.2679C14.7721 15.2846 14.6966 15.3129 14.6595 15.3317C14.5184 15.4037 14.4037 15.5184 14.3317 15.6595C14.3129 15.6966 14.2846 15.7721 14.2679 15.9759C14.2506 16.1884 14.25 16.4676 14.25 16.9V18.85C14.25 19.2824 14.2506 19.5616 14.2679 19.7741C14.2846 19.9779 14.3129 20.0534 14.3317 20.0905C14.4037 20.2316 14.5184 20.3463 14.6595 20.4183C14.6966 20.4371 14.7721 20.4654 14.9759 20.4821C15.1884 20.4994 15.4676 20.5 15.9 20.5H17.85C18.2824 20.5 18.5616 20.4994 18.7741 20.4821C18.9779 20.4654 19.0534 20.4371 19.0905 20.4183C19.2316 20.3463 19.3463 20.2316 19.4183 20.0905C19.4371 20.0534 19.4654 19.9779 19.4821 19.7741C19.4994 19.5616 19.5 19.2824 19.5 18.85V16.9C19.5 16.4676 19.4994 16.1884 19.4821 15.9759C19.4654 15.7721 19.4371 15.6966 19.4183 15.6595C19.3463 15.5184 19.2316 15.4037 19.0905 15.3317C19.0534 15.3129 18.9779 15.2846 18.7741 15.2679C18.5616 15.2506 18.2824 15.25 17.85 15.25H15.9C15.4676 15.25 15.1884 15.2506 14.9759 15.2679Z" fill="#9AA4CA"/>
</svg>
