<svg width="23" height="23" viewBox="0 0 23 23" fill="none" xmlns="http://www.w3.org/2000/svg">
<path d="M6.70768 3.83317C6.70768 2.77462 7.5658 1.9165 8.62435 1.9165H14.3743C15.4329 1.9165 16.291 2.77462 16.291 3.83317V5.74984H18.1978C18.2037 5.74978 18.2097 5.74978 18.2156 5.74984H20.1243C20.6536 5.74984 21.0827 6.1789 21.0827 6.70817C21.0827 7.23744 20.6536 7.6665 20.1243 7.6665H19.1L18.2688 19.3031C18.1972 20.3061 17.3626 21.0832 16.357 21.0832H6.64167C5.63611 21.0832 4.80152 20.3061 4.72988 19.3031L3.89869 7.6665H2.87435C2.34508 7.6665 1.91602 7.23744 1.91602 6.70817C1.91602 6.1789 2.34508 5.74984 2.87435 5.74984H4.7831C4.78905 5.74978 4.79498 5.74978 4.80091 5.74984H6.70768V3.83317ZM8.62435 5.74984H14.3743V3.83317H8.62435V5.74984ZM5.82024 7.6665L6.64167 19.1665H16.357L17.1785 7.6665H5.82024ZM9.58268 9.58317C10.112 9.58317 10.541 10.0122 10.541 10.5415V16.2915C10.541 16.8208 10.112 17.2498 9.58268 17.2498C9.05341 17.2498 8.62435 16.8208 8.62435 16.2915V10.5415C8.62435 10.0122 9.05341 9.58317 9.58268 9.58317ZM13.416 9.58317C13.9453 9.58317 14.3743 10.0122 14.3743 10.5415V16.2915C14.3743 16.8208 13.9453 17.2498 13.416 17.2498C12.8867 17.2498 12.4577 16.8208 12.4577 16.2915V10.5415C12.4577 10.0122 12.8867 9.58317 13.416 9.58317Z" fill="#3C3C3C"/>
</svg>
