<svg width="24" height="24" viewBox="0 0 24 24" fill="none" xmlns="http://www.w3.org/2000/svg">
<path fill-rule="evenodd" clip-rule="evenodd" d="M5.12109 3.5H16.8789C17.2743 3.49999 17.6153 3.49997 17.8963 3.52293C18.1928 3.54715 18.4877 3.60064 18.7715 3.74524C19.1948 3.96095 19.539 4.30516 19.7548 4.72852C19.8994 5.01231 19.9528 5.30722 19.9771 5.60373C20 5.88465 20 6.22572 20 6.62107V16.8789C20 17.2743 20 17.6153 19.9771 17.8963C19.9528 18.1928 19.8994 18.4877 19.7548 18.7715C19.539 19.1948 19.1948 19.539 18.7715 19.7548C18.4877 19.8994 18.1928 19.9528 17.8963 19.9771C17.6153 20 17.2743 20 16.8789 20H5.12108C4.72572 20 4.38466 20 4.10373 19.9771C3.80722 19.9528 3.51231 19.8994 3.22852 19.7548C2.80516 19.539 2.46095 19.1948 2.24524 18.7715C2.10064 18.4877 2.04715 18.1928 2.02293 17.8963C1.99998 17.6153 1.99999 17.2743 2 16.8789V6.62109C1.99999 6.22573 1.99998 5.88466 2.02293 5.60373C2.04715 5.30722 2.10064 5.01231 2.24524 4.72852C2.46095 4.30516 2.80516 3.96095 3.22852 3.74524C3.51231 3.60064 3.80722 3.54715 4.10373 3.52293C4.38466 3.49997 4.72573 3.49999 5.12109 3.5ZM4.22588 5.01795C4.02213 5.03459 3.94659 5.06285 3.90951 5.08174C3.76839 5.15365 3.65365 5.26839 3.58175 5.40951C3.56285 5.44659 3.53459 5.52213 3.51795 5.72588C3.50058 5.93838 3.5 6.21758 3.5 6.65V16.85C3.5 17.2824 3.50058 17.5616 3.51795 17.7741C3.53459 17.9779 3.56285 18.0534 3.58175 18.0905C3.65365 18.2316 3.76839 18.3463 3.90951 18.4183C3.94659 18.4371 4.02213 18.4654 4.22588 18.4821C4.43838 18.4994 4.71759 18.5 5.15 18.5H16.85C17.2824 18.5 17.5616 18.4994 17.7741 18.4821C17.9779 18.4654 18.0534 18.4371 18.0905 18.4183C18.2316 18.3463 18.3464 18.2316 18.4183 18.0905C18.4371 18.0534 18.4654 17.9779 18.4821 17.7741C18.4994 17.5616 18.5 17.2824 18.5 16.85V6.65C18.5 6.21758 18.4994 5.93838 18.4821 5.72588C18.4654 5.52213 18.4371 5.44659 18.4183 5.40951C18.3464 5.26839 18.2316 5.15365 18.0905 5.08174C18.0534 5.06285 17.9779 5.03459 17.7741 5.01795C17.5616 5.00058 17.2824 5 16.85 5H5.15C4.71759 5 4.43838 5.00058 4.22588 5.01795Z" fill="#9AA4CA"/>
<path d="M5 2.75C5 2.33579 5.33579 2 5.75 2C6.16421 2 6.5 2.33579 6.5 2.75V5.75C6.5 6.16421 6.16421 6.5 5.75 6.5C5.33579 6.5 5 6.16421 5 5.75V2.75Z" fill="#9AA4CA"/>
<path d="M15.5 2.75C15.5 2.33579 15.8358 2 16.25 2C16.6642 2 17 2.33579 17 2.75V5.75C17 6.16421 16.6642 6.5 16.25 6.5C15.8358 6.5 15.5 6.16421 15.5 5.75V2.75Z" fill="#9AA4CA"/>
<path d="M12.5 11C12.5 11.8284 11.8284 12.5 11 12.5C10.1716 12.5 9.5 11.8284 9.5 11C9.5 10.1716 10.1716 9.5 11 9.5C11.8284 9.5 12.5 10.1716 12.5 11Z" fill="#9AA4CA"/>
<path d="M8 15.5C8 16.3284 7.32843 17 6.5 17C5.67157 17 5 16.3284 5 15.5C5 14.6716 5.67157 14 6.5 14C7.32843 14 8 14.6716 8 15.5Z" fill="#9AA4CA"/>
</svg>
