<svg width="24" height="26" viewBox="0 0 24 26" fill="none" xmlns="http://www.w3.org/2000/svg">
<path fill-rule="evenodd" clip-rule="evenodd" d="M9.48834 6.70429C9.73875 5.70267 10.6387 5 11.6712 5H12.3288C13.3613 5 14.2612 5.70267 14.5117 6.70429L14.574 6.95357C14.7742 7.02674 14.9705 7.10818 15.1623 7.19749L15.3829 7.06514C16.2682 6.53395 17.4014 6.67346 18.1315 7.40351L18.5965 7.86856C19.3266 8.59861 19.4661 9.73184 18.9349 10.6172L18.8025 10.8378C18.8918 11.0296 18.9733 11.2258 19.0464 11.426L19.2957 11.4883C20.2973 11.7388 21 12.6387 21 13.6712V14.3288C21 15.3613 20.2973 16.2612 19.2957 16.5117L19.0464 16.574C18.9733 16.7742 18.8918 16.9705 18.8025 17.1623L18.9349 17.3828C19.466 18.2681 19.3265 19.4014 18.5965 20.1314L18.1314 20.5965C17.4014 21.3265 16.2682 21.466 15.3828 20.9348L15.1623 20.8025C14.9705 20.8918 14.7742 20.9733 14.574 21.0464L14.5117 21.2957C14.2612 22.2973 13.3613 23 12.3288 23H11.6712C10.6387 23 9.73875 22.2973 9.48834 21.2957L9.42603 21.0464C9.22577 20.9733 9.02953 20.8918 8.83772 20.8025L8.61718 20.9348C7.73186 21.466 6.59863 21.3265 5.86858 20.5965L5.40354 20.1314C4.67348 19.4014 4.53397 18.2681 5.06517 17.3828L5.19749 17.1623C5.10818 16.9705 5.02674 16.7742 4.95357 16.574L4.70429 16.5117C3.70267 16.2612 3 15.3613 3 14.3288V13.6712C3 12.6387 3.70267 11.7388 4.70429 11.4883L4.95357 11.426C5.02674 11.2258 5.10819 11.0295 5.19749 10.8377L5.06516 10.6172C4.53397 9.73184 4.67348 8.59861 5.40353 7.86856L5.86858 7.40351C6.59863 6.67346 7.73186 6.53395 8.61718 7.06514L8.83774 7.19748C9.02954 7.10818 9.22578 7.02673 9.42603 6.95357L9.48834 6.70429ZM11.6712 6.5C11.327 6.5 11.027 6.73422 10.9436 7.0681L10.678 8.13031L10.2697 8.25305C9.88214 8.36956 9.51098 8.52427 9.16056 8.71291L8.78497 8.9151L7.84544 8.35138C7.55033 8.17432 7.17259 8.22082 6.92924 8.46417L6.46419 8.92922C6.22084 9.17257 6.17434 9.55031 6.3514 9.84542L6.91512 10.7849L6.71292 11.1605C6.52428 11.511 6.36956 11.8821 6.25305 12.2697L6.13031 12.678L5.0681 12.9436C4.73422 13.027 4.5 13.327 4.5 13.6712V14.3288C4.5 14.673 4.73422 14.973 5.0681 15.0564L6.13031 15.322L6.25305 15.7303C6.36956 16.1179 6.52428 16.489 6.71292 16.8395L6.91511 17.2151L6.35141 18.1546C6.17434 18.4497 6.22084 18.8274 6.4642 19.0708L6.92924 19.5358C7.17259 19.7792 7.55033 19.8257 7.84544 19.6486L8.78495 19.0849L9.16055 19.2871C9.51097 19.4757 9.88213 19.6304 10.2697 19.747L10.678 19.8697L10.9436 20.9319C11.027 21.2658 11.327 21.5 11.6712 21.5H12.3288C12.673 21.5 12.973 21.2658 13.0564 20.9319L13.322 19.8697L13.7303 19.747C14.1179 19.6304 14.489 19.4757 14.8395 19.2871L15.2151 19.0849L16.1546 19.6486C16.4497 19.8257 16.8274 19.7792 17.0708 19.5358L17.5358 19.0708C17.7792 18.8274 17.8257 18.4497 17.6486 18.1546L17.0849 17.215L17.2871 16.8394C17.4757 16.489 17.6304 16.1179 17.747 15.7303L17.8697 15.322L18.9319 15.0564C19.2658 14.973 19.5 14.673 19.5 14.3288V13.6712C19.5 13.327 19.2658 13.027 18.9319 12.9436L17.8697 12.678L17.747 12.2697C17.6304 11.8821 17.4757 11.511 17.2871 11.1606L17.0849 10.785L17.6486 9.84542C17.8257 9.55031 17.7792 9.17257 17.5359 8.92922L17.0708 8.46417C16.8275 8.22082 16.4497 8.17432 16.1546 8.35138L15.2151 8.91511L14.8395 8.71292C14.489 8.52428 14.1179 8.36956 13.7303 8.25305L13.322 8.13031L13.0564 7.0681C12.973 6.73422 12.673 6.5 12.3288 6.5H11.6712Z" fill="#6F85D3"/>
<path fill-rule="evenodd" clip-rule="evenodd" d="M12 12.5C11.1716 12.5 10.5 13.1716 10.5 14C10.5 14.8284 11.1716 15.5 12 15.5C12.8284 15.5 13.5 14.8284 13.5 14C13.5 13.1716 12.8284 12.5 12 12.5ZM9 14C9 12.3431 10.3431 11 12 11C13.6569 11 15 12.3431 15 14C15 15.6569 13.6569 17 12 17C10.3431 17 9 15.6569 9 14Z" fill="#6F85D3"/>
</svg>
