<svg width="24" height="24" viewBox="0 0 24 24" fill="none" xmlns="http://www.w3.org/2000/svg">
<path d="M7.80239 14.9375C7.10333 14.9363 6.46903 15.2078 6 15.6497C7.2151 17.9468 9.62811 19.5312 12.3985 19.5312C15.1688 19.5313 17.5818 17.9469 18.7969 15.6498C18.3278 15.2078 17.6935 14.9364 16.9944 14.9375C13.9303 14.9428 10.8664 14.9428 7.80239 14.9375Z" fill="#3C3C3C"/>
<path d="M16.9375 8.48438C16.9375 10.961 14.9298 12.9688 12.4531 12.9688C9.97647 12.9688 7.96875 10.961 7.96875 8.48438C7.96875 6.00772 9.97647 4 12.4531 4C14.9298 4 16.9375 6.00772 16.9375 8.48438Z" fill="#3C3C3C"/>
</svg>
