<svg width="24" height="24" viewBox="0 0 24 24" fill="none" xmlns="http://www.w3.org/2000/svg">
<path fill-rule="evenodd" clip-rule="evenodd" d="M2.47668 2.47668C2.7819 2.17147 3.19586 2 3.6275 2H18.9725C19.4041 2 19.8181 2.17147 20.1233 2.47668C20.4285 2.7819 20.6 3.19586 20.6 3.6275V18.9725C20.6 19.4041 20.4285 19.8181 20.1233 20.1233C19.8181 20.4285 19.4041 20.6 18.9725 20.6H3.6275C2.72912 20.6 2 19.8709 2 18.9725V3.6275C2 3.19586 2.17147 2.7819 2.47668 2.47668ZM3.4631 3.4631C3.4195 3.5067 3.395 3.56584 3.395 3.6275V18.9725C3.395 19.0342 3.4195 19.0933 3.4631 19.1369C3.5067 19.1805 3.56584 19.205 3.6275 19.205H18.9725C19.0342 19.205 19.0933 19.1805 19.1369 19.1369C19.1805 19.0933 19.205 19.0342 19.205 18.9725V3.6275C19.205 3.56584 19.1805 3.5067 19.1369 3.4631C19.0933 3.4195 19.0342 3.395 18.9725 3.395H3.6275C3.56584 3.395 3.5067 3.4195 3.4631 3.4631ZM6.38844 5.92312C6.51925 5.79232 6.69666 5.71883 6.88165 5.71883C7.06664 5.71883 7.24405 5.79232 7.37486 5.92312C7.50566 6.05393 7.57915 6.23134 7.57915 6.41633V13.3913C7.57915 13.5763 7.50566 13.7537 7.37486 13.8845C7.24405 14.0153 7.06664 14.0888 6.88165 14.0888C6.69666 14.0888 6.51925 14.0153 6.38844 13.8845C6.25764 13.7537 6.18415 13.5763 6.18415 13.3913V6.41633C6.18415 6.23134 6.25764 6.05393 6.38844 5.92312ZM10.8059 5.92312C10.9367 5.79232 11.1142 5.71883 11.2991 5.71883C11.4841 5.71883 11.6615 5.79232 11.7924 5.92312C11.9232 6.05393 11.9966 6.23134 11.9966 6.41633V10.6013C11.9966 10.7863 11.9232 10.9637 11.7924 11.0945C11.6615 11.2253 11.4841 11.2988 11.2991 11.2988C11.1142 11.2988 10.9367 11.2253 10.8059 11.0945C10.6751 10.9637 10.6016 10.7863 10.6016 10.6013V6.41633C10.6016 6.23134 10.6751 6.05393 10.8059 5.92312ZM15.2234 5.92312C15.0926 6.05393 15.0191 6.23134 15.0191 6.41633V15.2513C15.0191 15.4363 15.0926 15.6137 15.2234 15.7445C15.3542 15.8753 15.5317 15.9488 15.7166 15.9488C15.9016 15.9488 16.0791 15.8753 16.2099 15.7445C16.3407 15.6137 16.4141 15.4363 16.4141 15.2513V6.41633C16.4141 6.23134 16.3407 6.05393 16.2099 5.92312C16.0791 5.79232 15.9016 5.71883 15.7166 5.71883C15.5317 5.71883 15.3542 5.79232 15.2234 5.92312Z" fill="#9AA4CA"/>
</svg>
