<svg width="24" height="24" viewBox="0 0 24 24" fill="none" xmlns="http://www.w3.org/2000/svg">
<path fill-rule="evenodd" clip-rule="evenodd" d="M11.8506 2.2002C8.66525 2.2002 5.79479 4.41922 5.79479 7.39089V11.3177C5.79479 11.8728 5.63043 12.4156 5.32244 12.8775L3.41918 15.7315C3.28749 15.9294 3.21198 16.1593 3.2007 16.3967C3.18942 16.6341 3.24279 16.8702 3.35512 17.0797C3.46745 17.2891 3.63453 17.4642 3.83855 17.5862C4.04256 17.7082 4.27586 17.7725 4.51355 17.7723H8.8227C8.8227 18.1699 8.90102 18.5637 9.05318 18.931C9.20535 19.2984 9.42838 19.6322 9.70955 19.9133C9.99072 20.1945 10.3245 20.4175 10.6919 20.5697C11.0592 20.7219 11.453 20.8002 11.8506 20.8002C12.2482 20.8002 12.642 20.7219 13.0093 20.5697C13.3767 20.4175 13.7105 20.1945 13.9917 19.9133C14.2728 19.6322 14.4959 19.2984 14.648 18.931C14.8002 18.5637 14.8785 18.1699 14.8785 17.7723H19.1885C19.4262 17.7723 19.6594 17.7078 19.8633 17.5856C20.0672 17.4635 20.2342 17.2883 20.3463 17.0787C20.4585 16.8691 20.5116 16.6331 20.5002 16.3956C20.4887 16.1582 20.413 15.9284 20.2812 15.7306L18.3779 12.8775C18.0702 12.4155 17.9062 11.8727 17.9064 11.3177V7.39089C17.9064 4.41922 15.0351 2.2002 11.8506 2.2002ZM7.09247 7.39089C7.09247 5.34576 9.15404 3.49787 11.8506 3.49787C14.5472 3.49787 16.6087 5.34576 16.6087 7.39089V11.3177C16.6087 12.1291 16.8492 12.9216 17.2991 13.5972L19.2015 16.4513C19.2032 16.4538 19.2042 16.4568 19.2041 16.4599L19.2032 16.4651L19.1998 16.4703L19.1946 16.4737L19.1885 16.4746H4.51269L4.50663 16.4737L4.50144 16.4703L4.49798 16.4651L4.49712 16.459L4.49971 16.4504L6.40297 13.5972C6.85278 12.9221 7.09269 12.1289 7.09247 11.3177V7.39089ZM13.5808 17.7723H10.1204C10.1204 18.2312 10.3027 18.6713 10.6271 18.9957C10.9516 19.3202 11.3917 19.5025 11.8506 19.5025C12.3095 19.5025 12.7496 19.3202 13.0741 18.9957C13.3985 18.6713 13.5808 18.2312 13.5808 17.7723Z" fill="#6F85D3"/>
</svg>
