<svg width="24" height="24" viewBox="0 0 24 24" fill="none" xmlns="http://www.w3.org/2000/svg">
<path fill-rule="evenodd" clip-rule="evenodd" d="M6.60603 5.23065C6.93407 4.92312 7.46593 4.92312 7.79397 5.23065L11.154 8.38065C11.482 8.68819 11.482 9.18681 11.154 9.49435C10.8259 9.80188 10.2941 9.80188 9.96603 9.49435L8.04 7.68869V16.8125C8.04 17.2474 7.66392 17.6 7.2 17.6C6.73608 17.6 6.36 17.2474 6.36 16.8125V7.68869L4.43397 9.49435C4.10593 9.80188 3.57407 9.80188 3.24603 9.49435C2.91799 9.18681 2.91799 8.68819 3.24603 8.38065L6.60603 5.23065ZM12.4999 9.00002C12.4999 8.72387 12.7238 8.50002 12.9999 8.50002H15.4999C15.7761 8.50002 15.9999 8.72387 15.9999 9.00002C15.9999 9.27616 15.7761 9.50002 15.4999 9.50002H12.9999C12.7238 9.50002 12.4999 9.27616 12.4999 9.00002ZM12.9999 10.5C12.7238 10.5 12.4999 10.7239 12.4999 11C12.4999 11.2762 12.7238 11.5 12.9999 11.5H16.9999C17.2761 11.5 17.4999 11.2762 17.4999 11C17.4999 10.7239 17.2761 10.5 16.9999 10.5H12.9999ZM12.4999 13C12.4999 12.7239 12.7238 12.5 12.9999 12.5H17.9999C18.2761 12.5 18.4999 12.7239 18.4999 13C18.4999 13.2762 18.2761 13.5 17.9999 13.5H12.9999C12.7238 13.5 12.4999 13.2762 12.4999 13ZM12.9999 14.5C12.7238 14.5 12.4999 14.7239 12.4999 15C12.4999 15.2762 12.7238 15.5 12.9999 15.5H18.9999C19.2761 15.5 19.4999 15.2762 19.4999 15C19.4999 14.7239 19.2761 14.5 18.9999 14.5H12.9999Z" fill="#3C3C3C"/>
</svg>
