<svg width="24" height="24" viewBox="0 0 24 24" fill="none" xmlns="http://www.w3.org/2000/svg">
<path d="M7.28459 5.63307C7.60719 5.31046 8.13024 5.31046 8.45285 5.63307L11.7572 8.93742C12.0798 9.26002 12.0798 9.78307 11.7572 10.1057C11.4346 10.4283 10.9115 10.4283 10.5889 10.1057L8.6948 8.21155V17.7824C8.6948 18.2387 8.32495 18.6085 7.86872 18.6085C7.41248 18.6085 7.04263 18.2387 7.04263 17.7824V8.21155L5.1485 10.1057C4.82589 10.4283 4.30284 10.4283 3.98024 10.1057C3.65763 9.78307 3.65763 9.26002 3.98024 8.93742L7.28459 5.63307ZM15.3035 15.7881V6.2172C15.3035 5.76096 15.6734 5.39111 16.1296 5.39111C16.5858 5.39111 16.9557 5.76096 16.9557 6.2172V15.7881L18.8498 13.8939C19.1724 13.5713 19.6955 13.5713 20.0181 13.8939C20.3407 14.2165 20.3407 14.7396 20.0181 15.0622L16.7137 18.3665C16.5588 18.5215 16.3487 18.6085 16.1296 18.6085C15.9105 18.6085 15.7004 18.5215 15.5455 18.3665L12.2411 15.0622C11.9185 14.7396 11.9185 14.2165 12.2411 13.8939C12.5637 13.5713 13.0868 13.5713 13.4094 13.8939L15.3035 15.7881Z" fill="#3C3C3C"/>
</svg>
