<svg width="24" height="24" viewBox="0 0 24 24" fill="none" xmlns="http://www.w3.org/2000/svg">
<path fill-rule="evenodd" clip-rule="evenodd" d="M11 4.5C8.92893 4.5 7.25 6.17893 7.25 8.25C7.25 10.3211 8.92893 12 11 12C13.0711 12 14.75 10.3211 14.75 8.25C14.75 6.17893 13.0711 4.5 11 4.5ZM5.75 8.25C5.75 5.35051 8.10051 3 11 3C13.8995 3 16.25 5.35051 16.25 8.25C16.25 11.1495 13.8995 13.5 11 13.5C8.10051 13.5 5.75 11.1495 5.75 8.25Z" fill="#9AA4CA"/>
<path fill-rule="evenodd" clip-rule="evenodd" d="M7.57856 12.619C8.66509 12.2099 9.82751 12 11 12C12.1725 12 13.3349 12.2099 14.4214 12.619C15.508 13.0282 16.4997 13.6295 17.3381 14.3917C18.1768 15.1541 18.8462 16.0631 19.3045 17.0689C19.7629 18.0749 20 19.1561 20 20.25C20 20.6642 19.6642 21 19.25 21C18.8358 21 18.5 20.6642 18.5 20.25C18.5 19.3741 18.3103 18.5047 17.9395 17.6908C17.5686 16.8767 17.0227 16.1322 16.3291 15.5017C15.6354 14.871 14.8081 14.3675 13.8928 14.0228C12.9775 13.6781 11.9943 13.5 11 13.5C10.0057 13.5 9.0225 13.6781 8.10716 14.0228C7.19187 14.3675 6.36456 14.871 5.67087 15.5017C4.97733 16.1322 4.43142 16.8767 4.06049 17.6908C3.68967 18.5047 3.5 19.3741 3.5 20.25C3.5 20.6642 3.16421 21 2.75 21C2.33579 21 2 20.6642 2 20.25C2 19.1561 2.23711 18.0749 2.6955 17.0689C3.15377 16.0631 3.82324 15.1541 4.66186 14.3917C5.50034 13.6295 6.49198 13.0282 7.57856 12.619Z" fill="#9AA4CA"/>
</svg>
